<svg viewBox="0 0 18 18" xmlns="http://www.w3.org/2000/svg">
    <path fill-rule="evenodd" clip-rule="evenodd"
        d="M13.9419 4.05806C14.186 4.30214 14.186 4.69786 13.9419 4.94194L4.94194 13.9419C4.69786 14.186 4.30214 14.186 4.05806 13.9419C3.81398 13.6979 3.81398 13.3021 4.05806 13.0581L13.0581 4.05806C13.3021 3.81398 13.6979 3.81398 13.9419 4.05806Z" />
    <path fill-rule="evenodd" clip-rule="evenodd"
        d="M4.05806 4.05806C4.30214 3.81398 4.69786 3.81398 4.94194 4.05806L13.9419 13.0581C14.186 13.3021 14.186 13.6979 13.9419 13.9419C13.6979 14.186 13.3021 14.186 13.0581 13.9419L4.05806 4.94194C3.81398 4.69786 3.81398 4.30214 4.05806 4.05806Z" />
</svg>